<?xml version="1.0" encoding="utf-8"?>
<!-- Generator: Adobe Illustrator 18.0.0, SVG Export Plug-In . SVG Version: 6.00 Build 0)  -->
<!DOCTYPE svg PUBLIC "-//W3C//DTD SVG 1.1//EN" "http://www.w3.org/Graphics/SVG/1.1/DTD/svg11.dtd">
<svg version="1.1" id="Layer_1" xmlns="http://www.w3.org/2000/svg" xmlns:xlink="http://www.w3.org/1999/xlink" x="0px" y="0px"
	 viewBox="0 0 424 251.3" enable-background="new 0 0 424 251.3" xml:space="preserve">
<g>
	<g>
		<g>
			<g>
				<path d="M3.4,87v-85h19v68.1h36.3V87H3.4z"/>
				<path d="M72.5,1.9h19v85h-19V1.9z"/>
				<path d="M196.9,43.9c0,8.8-2.3,16.8-6.8,23.8c-4.5,7.1-10.6,12.3-18.2,15.8c0.7,1.2,1.9,2.3,3.5,3.1c1.6,0.9,3.2,1.3,4.9,1.3
					c1.7,0,3.4-0.3,5-0.8c1.6-0.5,2.9-1.2,3.9-1.9c2.1-1.7,3.6-3.4,4.5-5l9.9,11.8c-7,7.4-15.7,11.1-26.2,11.1
					c-4.9,0-9.7-1.3-14.4-4c-4.7-2.7-8.3-6.4-10.8-11.3c-12.6,0-23.2-4.2-31.8-12.6c-8.6-8.4-12.9-18.8-12.9-31.3
					c0-12.5,4.3-22.9,12.9-31.3C129.1,4.2,139.7,0,152.3,0c12.6,0,23.2,4.2,31.8,12.6C192.6,21,196.9,31.4,196.9,43.9z M177.6,44
					c0-7.6-2.4-14.1-7.3-19.4c-4.9-5.4-10.9-8-18-8c-7.1,0-13.1,2.7-18,8c-4.9,5.4-7.3,11.8-7.3,19.4c0,7.6,2.4,14,7.3,19.3
					c4.9,5.3,10.9,8,18,8c7.1,0,13.1-2.7,18-8C175.2,58,177.6,51.6,177.6,44z"/>
				<path d="M235.7,65c3.2,3.9,7.4,5.9,12.8,5.9c5.4,0,9.6-2,12.7-5.9c3.1-3.9,4.7-9.3,4.7-16.1v-47h19v47.6
					c0,12.3-3.4,21.8-10.2,28.4c-6.8,6.6-15.5,9.9-26.2,9.9c-10.6,0-19.4-3.3-26.2-10c-6.9-6.6-10.3-16.1-10.3-28.3V1.9h19v47
					C230.9,55.7,232.5,61.1,235.7,65z"/>
				<path d="M304.6,1.9h19v85h-19V1.9z"/>
				<path d="M409.5,13.1c8.1,7.4,12.2,17.7,12.2,31c0,13.2-4,23.7-11.9,31.4c-7.9,7.7-20,11.6-36.2,11.6h-29.1v-85h30.1
					C389.7,1.9,401.4,5.7,409.5,13.1z M395.6,63.6c4.7-4.4,7-10.7,7-19.1c0-8.4-2.3-14.8-7-19.3c-4.7-4.5-11.8-6.8-21.5-6.8h-10.6
					v51.7h12.1C384.2,70.2,390.9,68,395.6,63.6z"/>
			</g>
			<g>
				<path d="M27.3,154.7c5.8,0,10.5-2.3,14.1-6.8l7.5,7.7c-6,6.7-13,10.1-21.1,10.1c-8.1,0-14.7-2.6-20-7.7
					C2.6,152.9,0,146.4,0,138.7c0-7.8,2.7-14.3,8-19.5c5.3-5.2,11.9-7.8,19.6-7.8c8.6,0,15.8,3.3,21.6,9.8l-7.3,8.3
					c-3.7-4.6-8.3-6.9-13.8-6.9c-4.4,0-8.2,1.4-11.3,4.3c-3.1,2.9-4.7,6.8-4.7,11.6c0,4.9,1.5,8.8,4.4,11.7
					C19.5,153.2,23.1,154.7,27.3,154.7z"/>
				<path d="M101.1,157.8c-5.3,5.2-11.8,7.8-19.6,7.8c-7.8,0-14.3-2.6-19.6-7.8c-5.3-5.2-8-11.6-8-19.3c0-7.7,2.7-14.1,8-19.3
					c5.3-5.2,11.8-7.8,19.6-7.8c7.8,0,14.3,2.6,19.6,7.8c5.3,5.2,8,11.6,8,19.3C109.1,146.2,106.4,152.6,101.1,157.8z M97.2,138.5
					c0-4.7-1.5-8.7-4.5-12s-6.7-5-11.1-5c-4.4,0-8.1,1.7-11.1,5c-3,3.3-4.5,7.3-4.5,12c0,4.7,1.5,8.7,4.5,11.9
					c3,3.3,6.7,4.9,11.1,4.9c4.4,0,8.1-1.6,11.1-4.9C95.7,147.2,97.2,143.2,97.2,138.5z"/>
				<path d="M166,132l-14.2,28.7h-7L130.7,132v33H119v-52.4h15.8l13.5,28.8l13.6-28.8h15.8V165H166V132z"/>
				<path d="M237.6,132l-14.2,28.7h-7L202.3,132v33h-11.7v-52.4h15.8l13.5,28.8l13.6-28.8h15.8V165h-11.7V132z"/>
				<path d="M306.4,157.8c-5.3,5.2-11.8,7.8-19.6,7.8c-7.8,0-14.3-2.6-19.6-7.8c-5.3-5.2-8-11.6-8-19.3c0-7.7,2.7-14.1,8-19.3
					c5.3-5.2,11.8-7.8,19.6-7.8c7.8,0,14.3,2.6,19.6,7.8c5.3,5.2,8,11.6,8,19.3C314.4,146.2,311.7,152.6,306.4,157.8z M302.4,138.5
					c0-4.7-1.5-8.7-4.5-12c-3-3.3-6.7-5-11.1-5c-4.4,0-8.1,1.7-11.1,5c-3,3.3-4.5,7.3-4.5,12c0,4.7,1.5,8.7,4.5,11.9
					c3,3.3,6.7,4.9,11.1,4.9c4.4,0,8.1-1.6,11.1-4.9C300.9,147.2,302.4,143.2,302.4,138.5z"/>
				<path d="M361,112.6h11.7V165H361l-25-32.9V165h-11.7v-52.4h11l25.8,33.8V112.6z"/>
				<path d="M397.9,123.1c-1.1,0.9-1.7,2.2-1.7,3.7c0,1.5,0.7,2.7,2.1,3.6c1.4,0.9,4.6,2,9.5,3.2c5,1.2,8.8,3.1,11.6,5.5
					c2.8,2.5,4.1,6,4.1,10.7c0,4.7-1.8,8.5-5.3,11.4c-3.5,2.9-8.2,4.4-13.9,4.4c-8.3,0-15.8-3.1-22.4-9.2l7-8.6
					c5.7,5,10.9,7.4,15.7,7.4c2.2,0,3.8-0.5,5.1-1.4c1.2-0.9,1.8-2.2,1.8-3.8c0-1.6-0.7-2.8-2-3.8c-1.3-0.9-3.9-1.9-7.7-2.8
					c-6.1-1.5-10.6-3.3-13.4-5.7c-2.8-2.3-4.2-6-4.2-11c0-5,1.8-8.8,5.4-11.5c3.6-2.7,8-4.1,13.4-4.1c3.5,0,7,0.6,10.5,1.8
					c3.5,1.2,6.6,2.9,9.2,5.1l-5.9,8.6c-4.6-3.5-9.3-5.2-14.1-5.2C400.6,121.7,399,122.1,397.9,123.1z"/>
			</g>
		</g>
		<line fill="none" stroke="#231F20" stroke-width="4" stroke-miterlimit="10" x1="3.4" y1="180.9" x2="421.7" y2="180.9"/>
		<g>
			<path d="M38.8,251.3l-6.3-16.1H12.2L6,251.3H0l20-50.8h5l19.9,50.8H38.8z M30.6,229.9l-5.9-15.7c-0.8-2-1.5-4.4-2.4-7.3
				c-0.5,2.2-1.2,4.6-2.2,7.3l-6,15.7H30.6z"/>
			<path d="M74.2,251.3l-17.2-44.8h-0.3c0.3,3.6,0.5,7.8,0.5,12.7v32.2h-5.4v-50.6h8.9l16,41.7H77l16.2-41.7h8.8v50.6h-5.9v-32.6
				c0-3.7,0.2-7.8,0.5-12.2h-0.3L79,251.3H74.2z"/>
			<path d="M144.4,237.9c0,4.5-1.6,7.9-4.8,10.4c-3.2,2.5-7.6,3.7-13.2,3.7c-6,0-10.6-0.8-13.9-2.3V244c2.1,0.9,4.3,1.6,6.8,2.1
				c2.4,0.5,4.9,0.8,7.3,0.8c3.9,0,6.9-0.7,8.9-2.2s3-3.6,3-6.2c0-1.8-0.4-3.2-1.1-4.3s-1.9-2.2-3.5-3.1s-4.2-2-7.5-3.2
				c-4.7-1.7-8.1-3.7-10.1-6c-2-2.3-3-5.3-3-9c0-3.9,1.5-7,4.4-9.3c2.9-2.3,6.8-3.5,11.6-3.5c5,0,9.7,0.9,13.9,2.8l-1.8,5.1
				c-4.2-1.8-8.2-2.6-12.2-2.6c-3.1,0-5.6,0.7-7.3,2c-1.8,1.3-2.6,3.2-2.6,5.6c0,1.8,0.3,3.2,1,4.3c0.6,1.1,1.7,2.1,3.3,3.1
				c1.5,0.9,3.9,2,7,3.1c5.3,1.9,9,3.9,11,6.1S144.4,234.4,144.4,237.9z"/>
			<path d="M170.4,251.3h-5.9V206h-16v-5.2h38v5.2h-16V251.3z"/>
			<path d="M222.2,251.3H194v-50.6h28.2v5.2h-22.3v16.3h21v5.2h-21v18.6h22.3V251.3z"/>
			<path d="M239.3,230.3v21h-5.9v-50.6h13.9c6.2,0,10.8,1.2,13.8,3.6c3,2.4,4.4,6,4.4,10.7c0,6.7-3.4,11.2-10.2,13.6l13.7,22.7h-7
				l-12.3-21H239.3z M239.3,225.2h8.1c4.2,0,7.2-0.8,9.1-2.5c1.9-1.6,2.9-4.1,2.9-7.4c0-3.3-1-5.8-3-7.2c-2-1.5-5.1-2.2-9.5-2.2
				h-7.7V225.2z"/>
			<path d="M317.7,225.5c0,8.4-2.3,14.7-6.8,19.2c-4.5,4.4-11.1,6.6-19.6,6.6h-14v-50.6h15.5c7.9,0,14,2.2,18.4,6.5
				C315.5,211.6,317.7,217.7,317.7,225.5z M311.5,225.7c0-6.6-1.7-11.6-5-14.9s-8.2-5-14.8-5h-8.6v40.4h7.2c7,0,12.3-1.7,15.8-5.2
				S311.5,232.5,311.5,225.7z"/>
			<path d="M360.8,251.3l-6.3-16.1h-20.3l-6.2,16.1h-6l20-50.8h5l19.9,50.8H360.8z M352.7,229.9l-5.9-15.7c-0.8-2-1.5-4.4-2.4-7.3
				c-0.5,2.2-1.2,4.6-2.2,7.3l-6,15.7H352.7z"/>
			<path d="M396.3,251.3l-17.2-44.8h-0.3c0.3,3.6,0.5,7.8,0.5,12.7v32.2h-5.4v-50.6h8.9l16,41.7h0.3l16.2-41.7h8.8v50.6h-5.9v-32.6
				c0-3.7,0.2-7.8,0.5-12.2h-0.3L401,251.3H396.3z"/>
		</g>
	</g>
</g>
</svg>
