<?xml version="1.0" encoding="utf-8"?>
<!-- Generator: Adobe Illustrator 18.0.0, SVG Export Plug-In . SVG Version: 6.00 Build 0)  -->
<!DOCTYPE svg PUBLIC "-//W3C//DTD SVG 1.1//EN" "http://www.w3.org/Graphics/SVG/1.1/DTD/svg11.dtd">
<svg version="1.1" id="Layer_1" xmlns="http://www.w3.org/2000/svg" xmlns:xlink="http://www.w3.org/1999/xlink" x="0px" y="0px"
	 viewBox="0 0 1190.6 841.9" enable-background="new 0 0 1190.6 841.9" xml:space="preserve">
<g class="prinsengracht">
	
	<rect x="431.3" y="205.4" transform="matrix(0.8574 0.5146 -0.5146 0.8574 190.9607 -186.9524)" fill="#FF0000" width="3" height="91.5"/>
	<rect x="509.7" y="427" fill="#FF0000" width="123.8" height="3"/>
	<rect x="451.1" y="427" fill="#FF0000" width="58.6" height="3"/>
	<rect x="407.8" y="290.4" fill="#FF0000" width="3" height="95.7"/>
	<rect x="400.4" y="405.8" transform="matrix(0.702 0.7122 -0.7122 0.702 418.2943 -185.0104)" fill="#FF0000" width="59.6" height="3"/>
	<rect x="632" y="398.2" fill="#FF0000" width="3" height="30.4"/>
</g>
<g>
	<rect x="618.5" y="396.7" fill="#27AAE1" width="40.1" height="3"/>
</g>
<g>
	<rect x="657.1" y="348.9" fill="#27AAE1" width="3" height="49.2"/>
</g>
<g>
	<rect x="584" y="347.4" fill="#27AAE1" width="74.6" height="3"/>
</g>
<g>
	<rect x="582.5" y="348.9" fill="#27AAE1" width="3" height="49.2"/>
</g>
<g>
	<rect x="584" y="396.7" fill="#27AAE1" width="34.5" height="3"/>
</g>
<g>
	<rect x="509.7" y="396.7" fill="#27AAE1" width="74.3" height="3"/>
</g>
<g>
	<rect x="508.2" y="398.2" fill="#8815FF" width="3" height="63.6"/>
</g>
<g>
	<rect x="471" y="396.7" fill="#27AAE1" width="38.7" height="3"/>
</g>
<g>
	<rect x="435.3" y="295.1" fill="#27AAE1" width="3" height="69"/>
</g>
<g>
	
		<rect x="456.4" y="221.6" transform="matrix(0.8478 0.5304 -0.5304 0.8478 208.3277 -203.0718)" fill="#27AAE1" width="3" height="79.6"/>
</g>
<g>
	
		<rect x="447.1" y="226" transform="matrix(1 5.828136e-03 -5.828136e-03 1 1.3338 -2.754)" fill="#27AAE1" width="52.3" height="3"/>
</g>
<g>
	
		<rect x="485.8" y="183.5" transform="matrix(0.8366 0.5478 -0.5478 0.8366 214.4537 -226.7249)" fill="#27AAE1" width="3" height="125.2"/>
</g>
<g>
	<rect x="451.4" y="298.5" fill="#27AAE1" width="3" height="63.9"/>
</g>
<g>
	
		<rect x="450.3" y="367.7" transform="matrix(0.7474 0.6644 -0.6644 0.7474 361.6891 -212.8187)" fill="#27AAE1" width="20.8" height="3"/>
</g>
<g>
	<rect x="468.5" y="374.6" fill="#27AAE1" width="8.3" height="3"/>
</g>
<g>
	<rect x="486.8" y="355.3" fill="#AA0050" width="3" height="22.4"/>
</g>
<g>
	<rect x="488.3" y="376.3" fill="#AA0050" width="47.7" height="3"/>
</g>
<g>
	<rect x="536" y="376.3" fill="#27AAE1" width="6.4" height="3"/>
</g>
<g>
	<rect x="540.9" y="377.8" fill="#AA0050" width="3" height="132.4"/>
</g>
<g>
	
		<rect x="440.6" y="222" transform="matrix(0.8515 0.5244 -0.5244 0.8515 201.523 -193.3657)" fill="#27AAE1" width="3" height="74.1"/>
</g>
<g>
	<rect x="421.2" y="290.7" fill="#27AAE1" width="3" height="87.1"/>
</g>
<g>
	<rect x="459" y="412.6" fill="#27AAE1" width="50.7" height="3"/>
</g>
<g>
	<rect x="509.7" y="412.6" fill="#27AAE1" width="108.8" height="3"/>
</g>
<g>
	<rect x="575.4" y="428.5" fill="#00D466" width="3" height="13.6"/>
</g>
<g>
	<rect x="576.9" y="440.6" fill="#00D466" width="72.1" height="3"/>
</g>
<g>
	<rect x="348.9" y="162.8" fill="#27AAE1" width="3" height="328.9"/>
</g>
<g>
	<rect x="350.4" y="490.2" fill="#FF9E15" width="391.6" height="3"/>
</g>
<g>
	<rect x="740.6" y="387.3" fill="#FF9E15" width="3" height="104.4"/>
</g>
<g>
	<rect x="742.1" y="385.8" fill="#FF9E15" width="215" height="3"/>
</g>
<g>
	<rect x="740.6" y="377.8" fill="#27AAE1" width="3" height="9.5"/>
</g>
<g>
	<rect x="742.1" y="376.3" fill="#27AAE1" width="215" height="3"/>
</g>
<g>
	
		<rect x="634.3" y="346.5" transform="matrix(0.7648 0.6443 -0.6443 0.7648 387.7293 -366.1524)" fill="#27AAE1" width="122.1" height="3"/>
</g>
<g>
	<rect x="647.2" y="272.1" fill="#27AAE1" width="3" height="36.5"/>
</g>
<g>
	<rect x="504" y="219.1" fill="#27AAE1" width="116.4" height="3"/>
</g>
<g>
	<rect x="618.9" y="193" fill="#27AAE1" width="3" height="27.4"/>
</g>
<g>
	<rect x="434" y="491.7" fill="#27AAE1" width="3" height="204"/>
</g>
<g>
	<rect x="199.5" y="636.6" fill="#27AAE1" width="33.8" height="3"/>
</g>
<g>
	<rect x="314.9" y="568.4" fill="#27AAE1" width="103.9" height="3"/>
</g>
<g>
	
		<rect x="408.7" y="584.9" transform="matrix(0.4516 0.8922 -0.8922 0.4516 757.4128 -59.5683)" fill="#27AAE1" width="36.9" height="3"/>
</g>
<g>
	<rect x="435.5" y="601.3" fill="#27AAE1" width="184.7" height="3"/>
</g>
<g>
	
		<rect x="527.1" y="546.4" transform="matrix(0.7187 0.6953 -0.6953 0.7187 544.5214 -250.1446)" fill="#AA0050" width="108.6" height="3"/>
</g>
<g>
	<rect x="618.9" y="585.7" fill="#AA0050" width="3" height="110"/>
</g>
<g>
	<rect x="620.2" y="620" fill="#27AAE1" width="113.7" height="3"/>
</g>
<g>
	
		<rect x="784.4" y="473.2" transform="matrix(0.7786 0.6275 -0.6275 0.7786 523.282 -369.9234)" fill="#27AAE1" width="3" height="166.8"/>
</g>
<g>
	<rect x="838.2" y="490.2" fill="#27AAE1" width="81.8" height="3"/>
</g>
<g>
	<rect x="198" y="638.1" fill="#27AAE1" width="3" height="48.6"/>
</g>
<g>
	<rect x="199.5" y="685.3" fill="#27AAE1" width="83.6" height="3"/>
</g>
<g>
	
		<rect x="395.3" y="584.7" transform="matrix(0.6417 0.767 -0.767 0.6417 629.3651 -76.6965)" fill="#27AAE1" width="3" height="101"/>
</g>
<g>
	
		<rect x="293.1" y="662.2" transform="matrix(0.6417 0.767 -0.767 0.6417 624.9471 16.7089)" fill="#27AAE1" width="3" height="29.9"/>
</g>
<g>
	
		<rect x="272.6" y="550.8" transform="matrix(0.6411 0.7674 -0.7674 0.6411 561.9012 6.4193)" fill="#27AAE1" width="3" height="106.4"/>
</g>
<g>
	<rect x="167.2" y="162.8" fill="#27AAE1" width="3" height="499.7"/>
</g>
<g>
	<rect x="168.7" y="300.9" fill="#27AAE1" width="181.7" height="3"/>
</g>
<g>
	<rect x="168.7" y="198" fill="#27AAE1" width="181.7" height="3"/>
</g>
<g>
	
		<rect x="138.4" y="649.1" transform="matrix(0.6454 0.7639 -0.7639 0.6454 574.2695 136.6744)" fill="#27AAE1" width="3" height="75.3"/>
</g>
<g>
	
		<rect x="168.7" y="381.2" transform="matrix(1 1.676827e-03 -1.676827e-03 1 0.6421 -0.4347)" fill="#27AAE1" width="181.7" height="3"/>
</g>
<g>
	<rect x="266.7" y="302.4" fill="#27AAE1" width="3" height="80.1"/>
</g>
<g>
	<path fill="none" stroke="#27AAE1" stroke-width="3" stroke-miterlimit="10" d="M329.3,341.2"/>
</g>
<g>
	<rect x="304.6" y="302.4" fill="#27AAE1" width="3" height="80.4"/>
</g>
<g>
	<rect x="520.1" y="132.5" fill="#27AAE1" width="3" height="61.2"/>
</g>
<g>
	<rect x="521.6" y="191.5" fill="#27AAE1" width="98.9" height="3"/>
</g>
<g>
	<rect x="620.4" y="191.5" fill="#27AAE1" width="358.3" height="3"/>
</g>
<g>
	<rect x="977.3" y="193" fill="#27AAE1" width="3" height="273.8"/>
</g>
<g>
	<rect x="978.8" y="465.3" fill="#27AAE1" width="101.7" height="3"/>
</g>
<g>
	<rect x="648.7" y="270.6" fill="#27AAE1" width="24" height="3"/>
</g>
<g>
	<rect x="672.6" y="270.6" fill="#27AAE1" width="60.8" height="3"/>
</g>
<g>
	<rect x="731.9" y="272.1" fill="#27AAE1" width="3" height="56.6"/>
</g>
<g>
	<rect x="733.4" y="270.6" fill="#27AAE1" width="27.5" height="3"/>
</g>
<g>
	<rect x="759.4" y="272.1" fill="#27AAE1" width="3" height="56.6"/>
</g>
<g>
	<rect x="793.8" y="347.4" fill="#27AAE1" width="134.2" height="3"/>
</g>
<g>
	<rect x="926.5" y="313.2" fill="#27AAE1" width="3" height="35.7"/>
</g>
<g>
	<rect x="792.3" y="348.9" fill="#27AAE1" width="3" height="28.8"/>
</g>
<g>
	<rect x="461.6" y="460.3" fill="#8815FF" width="48.1" height="3"/>
</g>
<g>
	<rect x="518.4" y="321.8" fill="#27AAE1" width="3" height="55.9"/>
</g>
<g>
	<rect x="530" y="349.7" fill="#27AAE1" width="3" height="28"/>
</g>
<g>
	<rect x="537.6" y="349.7" fill="#27AAE1" width="3" height="28"/>
</g>
<g>
	<rect x="519.9" y="348.2" fill="#27AAE1" width="19.2" height="3"/>
</g>
<g>
	<rect x="559.9" y="203.8" fill="#27AAE1" width="3" height="37.6"/>
</g>
<g>
	<rect x="550.5" y="239.8" fill="#27AAE1" width="10.9" height="3"/>
</g>
<g>
	<rect x="488.3" y="353.8" fill="#27AAE1" width="15.7" height="3"/>
</g>
<g>
	<rect x="502.5" y="277.1" fill="#27AAE1" width="3" height="78.3"/>
</g>
<g>
	<rect x="495" y="275.6" fill="#27AAE1" width="9" height="3"/>
</g>
<g>
	<rect x="493.5" y="277.1" fill="#27AAE1" width="3" height="78.3"/>
</g>
<g>
	<rect x="454.9" y="132.5" fill="#27AAE1" width="3" height="79.4"/>
</g>
<g>
	<rect x="456.9" y="147.2" fill="#27AAE1" width="64.7" height="3"/>
</g>
<g>
	<rect x="618.9" y="150.8" fill="#27AAE1" width="3" height="42.2"/>
</g>
<g>
	<rect x="620.4" y="149.3" fill="#27AAE1" width="168.7" height="3"/>
</g>
<g>
	<rect x="306.1" y="666.1" fill="#27AAE1" width="52" height="3"/>
</g>
<g>
	<rect x="647.5" y="398.2" fill="#00D466" width="3" height="44"/>
</g>
<g>
	<rect x="350.4" y="161.3" fill="#27AAE1" width="106" height="3"/>
</g>
<g>
	<rect x="366" y="162.8" fill="#27AAE1" width="3" height="151.1"/>
</g>
<g>
	<rect x="366" y="313.9" fill="#27AAE1" width="3" height="60.6"/>
</g>
<g>
	<rect x="367.5" y="373" fill="#27AAE1" width="41.8" height="3"/>
</g>
<g>
	<rect x="367.5" y="357" fill="#27AAE1" width="41.8" height="3"/>
</g>
<g>
	<rect x="367.5" y="320.4" fill="#27AAE1" width="41.8" height="3"/>
</g>
<g>
	<rect x="367.5" y="275.6" fill="#27AAE1" width="49.7" height="3"/>
</g>
<g>
	<rect x="367.5" y="257.3" fill="#27AAE1" width="60.3" height="3"/>
</g>
<g>
	
		<rect x="421.2" y="274.7" transform="matrix(0.8861 0.4635 -0.4635 0.8861 178.3882 -173.5566)" fill="#27AAE1" width="42.3" height="3"/>
</g>
<g>
	
		<rect x="461.6" y="256.5" transform="matrix(0.8597 0.5108 -0.5108 0.8597 197.6803 -203.7308)" fill="#27AAE1" width="16.3" height="3"/>
</g>
<g>
	<rect x="527.8" y="220.4" fill="#27AAE1" width="3" height="25.9"/>
</g>
<g>
	
		<rect x="411.1" y="439.4" transform="matrix(0.7071 0.7071 -0.7071 0.7071 440.828 -182.461)" fill="#8815FF" width="59.1" height="3"/>
</g>
<g>
	
		<rect x="415.2" y="394.4" transform="matrix(0.7071 0.7071 -0.7071 0.7071 409.093 -195.7757)" fill="#27AAE1" width="51.4" height="3"/>
</g>
<g>
	<rect x="617" y="398.2" fill="#27AAE1" width="3" height="15.9"/>
</g>
<g>
	<rect x="539.1" y="348.2" fill="#27AAE1" width="16.6" height="3"/>
</g>
<g>
	<rect x="554.3" y="276.4" fill="#27AAE1" width="3" height="73.4"/>
</g>
<g>
	<rect x="555.8" y="288.9" fill="#27AAE1" width="21.1" height="3"/>
</g>
<g>
	<rect x="575.4" y="290.4" fill="#27AAE1" width="3" height="40.7"/>
</g>
<g>
	<rect x="555.8" y="329.6" fill="#27AAE1" width="21.1" height="3"/>
</g>
<g>
	<rect x="539.1" y="302.6" fill="#27AAE1" width="16.6" height="3"/>
</g>
<g>
	<rect x="542.4" y="288.9" fill="#27AAE1" width="13.4" height="3"/>
</g>
<g>
	
		<rect x="520.7" y="279.9" transform="matrix(0.7091 0.7051 -0.7051 0.7091 353.5946 -294.2324)" fill="#27AAE1" width="25.3" height="3"/>
</g>
<g>
	
		<rect x="429.8" y="379.7" transform="matrix(0.7092 0.705 -0.705 0.7092 400.7118 -209.1695)" fill="#27AAE1" width="48.2" height="3"/>
</g>
<g>
	<rect x="469.5" y="461.8" fill="#27AAE1" width="3" height="29.8"/>
</g>
<g>
	<rect x="449.6" y="428.2" fill="#27AAE1" width="3" height="23.1"/>
</g>
</svg>
